<svg version="1.1" xmlns="http://www.w3.org/2000/svg" xmlns:xlink="http://www.w3.org/1999/xlink">
    <symbol id="logo" viewBox="0 0 147 36">
        <path d="M38.3447 16.33L43.0597 0.23H46.7397L51.4547 16.33H48.2347L47.1997 12.65H42.5997L41.5647 16.33H38.3447ZM46.6247 10.58L45.2447 5.75C45.1987 5.58133 45.1527 5.382 45.1067 5.152C45.0607 4.90667 45.0301 4.73033 45.0147 4.623L44.9457 4.025H44.8537L44.7617 4.623C44.7311 4.761 44.6927 4.95267 44.6467 5.198C44.6161 5.428 44.5854 5.612 44.5547 5.75L43.1747 10.58H46.6247Z" fill="black"/>
        <path d="M58.7015 16.56C56.9075 16.56 55.5199 16.077 54.5385 15.111C53.5572 14.145 53.0665 12.788 53.0665 11.04V0.23H56.2865V11.04C56.2865 12.19 56.5012 13.0563 56.9305 13.639C57.3752 14.2063 57.9655 14.49 58.7015 14.49C59.4375 14.49 60.0202 14.2063 60.4495 13.639C60.8942 13.0563 61.1165 12.19 61.1165 11.04V0.23H64.3365V11.04C64.3365 12.788 63.8459 14.145 62.8645 15.111C61.8832 16.077 60.4955 16.56 58.7015 16.56Z" fill="black"/>
        <path d="M70.3084 16.33V2.3H66.2834V0.23H77.5534V2.3H73.5284V16.33H70.3084Z" fill="black"/>
        <path d="M84.3268 16.56C82.4101 16.56 80.9151 15.893 79.8418 14.559C78.7684 13.2097 78.2318 11.1167 78.2318 8.28C78.2318 5.44333 78.7684 3.358 79.8418 2.024C80.9151 0.674667 82.4101 0 84.3268 0C86.2434 0 87.7384 0.674667 88.8118 2.024C89.8851 3.358 90.4218 5.44333 90.4218 8.28C90.4218 11.1167 89.8851 13.2097 88.8118 14.559C87.7384 15.893 86.2434 16.56 84.3268 16.56ZM84.3268 14.49C85.1701 14.49 85.8601 14.0147 86.3968 13.064C86.9334 12.1133 87.2018 10.5187 87.2018 8.28C87.2018 6.04133 86.9334 4.44667 86.3968 3.496C85.8601 2.54533 85.1701 2.07 84.3268 2.07C83.4834 2.07 82.7934 2.54533 82.2568 3.496C81.7201 4.44667 81.4518 6.04133 81.4518 8.28C81.4518 10.5187 81.7201 12.1133 82.2568 13.064C82.7934 14.0147 83.4834 14.49 84.3268 14.49Z" fill="black"/>
        <path d="M39.9547 19.23H44.3247C46.4561 19.23 48.0201 19.667 49.0167 20.541C50.0287 21.415 50.5347 22.703 50.5347 24.405C50.5347 25.9843 50.0364 27.2263 49.0397 28.131C48.5951 28.5297 48.0967 28.821 47.5447 29.005L51.4547 35.33H47.7747L44.4397 29.58H43.1747V35.33H39.9547V19.23ZM44.3247 27.51C45.3827 27.51 46.1417 27.2723 46.6017 26.797C47.0771 26.3063 47.3147 25.509 47.3147 24.405C47.3147 23.301 47.0771 22.5113 46.6017 22.036C46.1417 21.5453 45.3827 21.3 44.3247 21.3H43.1747V27.51H44.3247Z" fill="black"/>
        <path d="M52.1357 35.33L56.8507 19.23H60.5307L65.2457 35.33H62.0257L60.9907 31.65H56.3907L55.3557 35.33H52.1357ZM60.4157 29.58L59.0357 24.75C58.9897 24.5813 58.9437 24.382 58.8977 24.152C58.8517 23.9067 58.8211 23.7303 58.8057 23.623L58.7367 23.025H58.6447L58.5527 23.623C58.5221 23.761 58.4837 23.9527 58.4377 24.198C58.4071 24.428 58.3764 24.612 58.3457 24.75L56.9657 29.58H60.4157Z" fill="black"/>
        <path d="M66.3868 35.33V33.145L73.0568 21.3H66.3868V19.23H76.7368V21.415L70.0668 33.26H76.8518V35.33H66.3868Z" fill="black"/>
        <path d="M79.6207 19.23H84.4507C86.2754 19.23 87.6477 19.6057 88.5677 20.357C89.5031 21.1083 89.9707 22.1127 89.9707 23.37C89.9707 24.612 89.4877 25.5627 88.5217 26.222C88.0924 26.5133 87.6171 26.7127 87.0957 26.82C87.7244 26.9273 88.2994 27.1497 88.8207 27.487C89.3114 27.809 89.7177 28.246 90.0397 28.798C90.3771 29.35 90.5457 30.0323 90.5457 30.845C90.5457 33.835 88.5141 35.33 84.4507 35.33H79.6207V19.23ZM84.4507 25.9C85.1407 25.9 85.6927 25.693 86.1067 25.279C86.5361 24.8497 86.7507 24.29 86.7507 23.6C86.7507 22.91 86.5361 22.358 86.1067 21.944C85.6927 21.5147 85.1407 21.3 84.4507 21.3H82.8407V25.9H84.4507ZM84.4507 33.26C86.3674 33.26 87.3257 32.3783 87.3257 30.615C87.3257 28.8517 86.3674 27.97 84.4507 27.97H82.8407V33.26H84.4507Z" fill="black"/>
        <path d="M98.9488 35.56C97.0322 35.56 95.5372 34.893 94.4638 33.559C93.3905 32.2097 92.8538 30.1167 92.8538 27.28C92.8538 24.4433 93.3905 22.358 94.4638 21.024C95.5372 19.6747 97.0322 19 98.9488 19C100.865 19 102.36 19.6747 103.434 21.024C104.507 22.358 105.044 24.4433 105.044 27.28C105.044 30.1167 104.507 32.2097 103.434 33.559C102.36 34.893 100.865 35.56 98.9488 35.56ZM98.9488 33.49C99.7922 33.49 100.482 33.0147 101.019 32.064C101.555 31.1133 101.824 29.5187 101.824 27.28C101.824 25.0413 101.555 23.4467 101.019 22.496C100.482 21.5453 99.7922 21.07 98.9488 21.07C98.1055 21.07 97.4155 21.5453 96.8788 22.496C96.3422 23.4467 96.0738 25.0413 96.0738 27.28C96.0738 29.5187 96.3422 31.1133 96.8788 32.064C97.4155 33.0147 98.1055 33.49 98.9488 33.49Z" fill="black"/>
        <path d="M108.146 19.23H112.516C114.647 19.23 116.211 19.667 117.208 20.541C118.22 21.415 118.726 22.703 118.726 24.405C118.726 25.9843 118.228 27.2263 117.231 28.131C116.786 28.5297 116.288 28.821 115.736 29.005L119.646 35.33H115.966L112.631 29.58H111.366V35.33H108.146V19.23ZM112.516 27.51C113.574 27.51 114.333 27.2723 114.793 26.797C115.268 26.3063 115.506 25.509 115.506 24.405C115.506 23.301 115.268 22.5113 114.793 22.036C114.333 21.5453 113.574 21.3 112.516 21.3H111.366V27.51H112.516Z" fill="black"/>
        <path d="M121.937 35.33V19.23H125.157V26.36L129.412 19.23H132.977L128.147 26.935L133.322 35.33H129.642L125.157 27.74V35.33H121.937Z" fill="black"/>
        <path d="M133.781 35.33L138.496 19.23H142.176L146.891 35.33H143.671L142.636 31.65H138.036L137.001 35.33H133.781ZM142.061 29.58L140.681 24.75C140.635 24.5813 140.589 24.382 140.543 24.152C140.497 23.9067 140.467 23.7303 140.451 23.623L140.382 23.025H140.29L140.198 23.623C140.168 23.761 140.129 23.9527 140.083 24.198C140.053 24.428 140.022 24.612 139.991 24.75L138.611 29.58H142.061Z" fill="black"/>
        <path d="M23.3333 0.330078H11.6667L23.3333 35.3301H35L23.3333 0.330078Z" fill="#13438D"/>
        <path d="M11.6667 0.330078H23.3333L11.6667 35.3301H0L11.6667 0.330078Z" fill="#3362AB"/>
    </symbol>
    
    <symbol id="time" viewBox="0 0 24 24">
        <path xmlns="http://www.w3.org/2000/svg" id="icon/action/query_builder_24px_2" fill-rule="evenodd" clip-rule="evenodd" d="M11.99 2C6.46997 2 2 6.48001 2 12C2 17.52 6.46997 22 11.99 22C17.52 22 22 17.52 22 12C22 6.48001 17.52 2 11.99 2ZM12 20C7.57996 20 4 16.42 4 12C4 7.57999 7.57996 4 12 4C16.42 4 20 7.57999 20 12C20 16.42 16.42 20 12 20ZM11 7H12.5V12.25L17 14.92L16.25 16.15L11 13V7Z"/>
    </symbol>
    <symbol id="location" viewBox="0 0 24 24">
        <path xmlns="http://www.w3.org/2000/svg" id="icon/action/room_24px_2" fill-rule="evenodd" clip-rule="evenodd" d="M12 2C8.13 2 5 5.13 5 9C5 14.25 12 22 12 22C12 22 19 14.25 19 9C19 5.13 15.87 2 12 2ZM7 9C7 6.23999 9.23999 4 12 4C14.76 4 17 6.23999 17 9C17 11.88 14.12 16.19 12 18.88C9.92004 16.21 7 11.85 7 9ZM9.5 9C9.5 7.61929 10.6193 6.5 12 6.5C12.8932 6.5 13.7185 6.9765 14.165 7.75C14.6117 8.5235 14.6117 9.4765 14.165 10.25C13.7185 11.0235 12.8932 11.5 12 11.5C10.6193 11.5 9.5 10.3807 9.5 9Z"/>
    </symbol>
    <symbol id="company" viewBox="0 0 24 24">
        <path xmlns="http://www.w3.org/2000/svg" id="icon/action/work_outline_24px_2" fill-rule="evenodd" clip-rule="evenodd" d="M22 8.5C22 7.39001 21.11 6.5 20 6.5H16V4.5C16 3.39001 15.11 2.5 14 2.5H10C8.89001 2.5 8 3.39001 8 4.5V6.5H4C2.89001 6.5 2.01001 7.39001 2.01001 8.5L2 19.5C2 20.61 2.89001 21.5 4 21.5H20C21.11 21.5 22 20.61 22 19.5V8.5ZM14 6.5V4.5H10V6.5H14ZM4 8.5V19.5H20V8.5H4Z"/>
    </symbol>
    <symbol id="user" viewBox="0 0 24 24">
        <path xmlns="http://www.w3.org/2000/svg" id="icon/action/account_circle_24px_2" fill-rule="evenodd" clip-rule="evenodd" d="M12 2C6.47998 2 2 6.48001 2 12C2 17.52 6.47998 22 12 22C17.52 22 22 17.52 22 12C22 6.48001 17.52 2 12 2ZM7.06995 18.28C7.5 17.38 10.12 16.5 12 16.5C13.88 16.5 16.5099 17.38 16.9299 18.28C15.5699 19.36 13.86 20 12 20C10.1399 20 8.42993 19.36 7.06995 18.28ZM12 14.5C13.46 14.5 16.9301 15.09 18.36 16.83C19.38 15.49 20 13.82 20 12C20 7.59 16.41 4 12 4C7.58997 4 4 7.59 4 12C4 13.82 4.62 15.49 5.64001 16.83C7.06995 15.09 10.54 14.5 12 14.5ZM12 6C10.0601 6 8.5 7.56 8.5 9.5C8.5 11.44 10.0601 13 12 13C13.9399 13 15.5 11.44 15.5 9.5C15.5 7.56 13.9399 6 12 6ZM10.5 9.5C10.5 10.33 11.17 11 12 11C12.83 11 13.5 10.33 13.5 9.5C13.5 8.67001 12.83 8 12 8C11.17 8 10.5 8.67001 10.5 9.5Z"/>
    </symbol>
    <symbol id="plus" viewBox="0 0 24 24">
        <path xmlns="http://www.w3.org/2000/svg" id="icon/content/add_24px_2" d="M19 13H13V19H11V13H5V11H11V5H13V11H19V13Z"/>
    </symbol>
    <symbol id="grid" viewBox="0 0 24 24">
        <path xmlns="http://www.w3.org/2000/svg" id="icon/navigation/apps_24px_2" fill-rule="evenodd" clip-rule="evenodd" d="M4 8H8V4H4V8ZM10 20H14V16H10V20ZM8 20H4V16H8V20ZM4 14H8V10H4V14ZM14 14H10V10H14V14ZM16 4V8H20V4H16ZM14 8H10V4H14V8ZM16 14H20V10H16V14ZM20 20H16V16H20V20Z"/>
    </symbol>
    <symbol id="menu" viewBox="0 0 24 24">
        <path fill-rule="evenodd" clip-rule="evenodd" d="M2 12C2 11.4477 2.44772 11 3 11H21C21.5523 11 22 11.4477 22 12C22 12.5523 21.5523 13 21 13H3C2.44772 13 2 12.5523 2 12Z"/>
        <path fill-rule="evenodd" clip-rule="evenodd" d="M2 6C2 5.44772 2.44772 5 3 5H21C21.5523 5 22 5.44772 22 6C22 6.55228 21.5523 7 21 7H3C2.44772 7 2 6.55228 2 6Z"/>
        <path fill-rule="evenodd" clip-rule="evenodd" d="M2 18C2 17.4477 2.44772 17 3 17H21C21.5523 17 22 17.4477 22 18C22 18.5523 21.5523 19 21 19H3C2.44772 19 2 18.5523 2 18Z"/>
    </symbol>
    <symbol id="search" viewBox="0 0 24 24">
        <path fill-rule="evenodd" clip-rule="evenodd" d="M11 4C7.13401 4 4 7.13401 4 11C4 14.866 7.13401 18 11 18C14.866 18 18 14.866 18 11C18 7.13401 14.866 4 11 4ZM2 11C2 6.02944 6.02944 2 11 2C15.9706 2 20 6.02944 20 11C20 15.9706 15.9706 20 11 20C6.02944 20 2 15.9706 2 11Z"/>
        <path fill-rule="evenodd" clip-rule="evenodd" d="M15.9429 15.9429C16.3334 15.5524 16.9666 15.5524 17.3571 15.9429L21.7071 20.2929C22.0977 20.6834 22.0977 21.3166 21.7071 21.7071C21.3166 22.0977 20.6834 22.0977 20.2929 21.7071L15.9429 17.3571C15.5524 16.9666 15.5524 16.3334 15.9429 15.9429Z"/>
    </symbol>
    <symbol id="bell" viewBox="0 0 24 24">
        <path xmlns="http://www.w3.org/2000/svg" fill-rule="evenodd" clip-rule="evenodd" d="M12 3C10.4087 3 8.88258 3.63214 7.75736 4.75736C6.63214 5.88258 6 7.4087 6 9V14C6 14.7082 5.81218 15.3971 5.46411 16H18.5359C18.1878 15.3971 18 14.7082 18 14V9C18 7.4087 17.3679 5.88258 16.2426 4.75736C15.1174 3.63214 13.5913 3 12 3ZM22 16C21.4696 16 20.9609 15.7893 20.5858 15.4142C20.2107 15.0391 20 14.5304 20 14V9C20 6.87827 19.1571 4.84344 17.6569 3.34315C16.1566 1.84285 14.1217 1 12 1C9.87827 1 7.84344 1.84285 6.34315 3.34315C4.84285 4.84344 4 6.87827 4 9V14C4 14.5304 3.78929 15.0391 3.41421 15.4142C3.03914 15.7893 2.53043 16 2 16C1.44772 16 1 16.4477 1 17C1 17.5523 1.44772 18 2 18H22V16ZM9.76823 20.135C10.246 19.8579 10.8579 20.0205 11.135 20.4982C11.2229 20.6498 11.3491 20.7756 11.5009 20.863C11.6527 20.9504 11.8248 20.9965 12 20.9965C12.1752 20.9965 12.3473 20.9504 12.4991 20.863C12.6509 20.7756 12.7771 20.6498 12.865 20.4982C13.1421 20.0205 13.754 19.8579 14.2318 20.135C14.7095 20.4121 14.8721 21.024 14.595 21.5018C14.3313 21.9564 13.9528 22.3337 13.4973 22.5961C13.0419 22.8584 12.5256 22.9965 12 22.9965C11.4744 22.9965 10.9581 22.8584 10.5027 22.5961C10.0472 22.3337 9.66872 21.9564 9.405 21.5018C9.12788 21.024 9.2905 20.4121 9.76823 20.135Z"/>
    </symbol>
    <symbol id="fav" viewBox="0 0 24 24">
        <path xmlns="http://www.w3.org/2000/svg" fill-rule="evenodd" clip-rule="evenodd" d="M7 4C6.73478 4 6.48043 4.10536 6.29289 4.29289C6.10536 4.48043 6 4.73478 6 5V19.0568L11.4188 15.1863C11.7665 14.9379 12.2335 14.9379 12.5812 15.1863L18 19.0568V5C18 4.73478 17.8946 4.48043 17.7071 4.29289C17.5196 4.10536 17.2652 4 17 4H7ZM4.87868 2.87868C5.44129 2.31607 6.20435 2 7 2H17C17.7956 2 18.5587 2.31607 19.1213 2.87868C19.6839 3.44129 20 4.20435 20 5V21C20 21.3746 19.7907 21.7178 19.4576 21.8892C19.1245 22.0606 18.7236 22.0315 18.4188 21.8137L12 17.2289L5.58124 21.8137C5.27642 22.0315 4.87549 22.0606 4.54242 21.8892C4.20935 21.7178 4 21.3746 4 21V5C4 4.20435 4.31607 3.44129 4.87868 2.87868Z"/>
    </symbol>

    <symbol id="home" viewBox="0 0 24 24">
        <path fill-rule="evenodd" clip-rule="evenodd" d="M11.3861 1.21065C11.7472 0.929784 12.2528 0.929784 12.6139 1.21065L21.6139 8.21065C21.8575 8.4001 22 8.69141 22 9V20C22 20.7957 21.6839 21.5587 21.1213 22.1213C20.5587 22.6839 19.7957 23 19 23H5C4.20435 23 3.44129 22.6839 2.87868 22.1213C2.31607 21.5587 2 20.7957 2 20V9C2 8.69141 2.14247 8.4001 2.38606 8.21065L11.3861 1.21065ZM4 9.48908V20C4 20.2652 4.10536 20.5196 4.29289 20.7071C4.48043 20.8946 4.73478 21 5 21H19C19.2652 21 19.5196 20.8946 19.7071 20.7071C19.8946 20.5196 20 20.2652 20 20V9.48908L12 3.26686L4 9.48908Z"/>
        <path fill-rule="evenodd" clip-rule="evenodd" d="M8 12C8 11.4477 8.44772 11 9 11H15C15.5523 11 16 11.4477 16 12V22C16 22.5523 15.5523 23 15 23C14.4477 23 14 22.5523 14 22V13H10V22C10 22.5523 9.55228 23 9 23C8.44772 23 8 22.5523 8 22V12Z"/>
    </symbol>
    <symbol id="filter" viewBox="0 0 24 24">
        <path fill-rule="evenodd" clip-rule="evenodd" d="M4 13C4.55228 13 5 13.4477 5 14V21C5 21.5523 4.55228 22 4 22C3.44772 22 3 21.5523 3 21V14C3 13.4477 3.44772 13 4 13Z"/>
        <path fill-rule="evenodd" clip-rule="evenodd" d="M4 2C4.55228 2 5 2.44772 5 3V10C5 10.5523 4.55228 11 4 11C3.44772 11 3 10.5523 3 10V3C3 2.44772 3.44772 2 4 2Z"/>
        <path fill-rule="evenodd" clip-rule="evenodd" d="M12 11C12.5523 11 13 11.4477 13 12V21C13 21.5523 12.5523 22 12 22C11.4477 22 11 21.5523 11 21V12C11 11.4477 11.4477 11 12 11Z"/>
        <path fill-rule="evenodd" clip-rule="evenodd" d="M12 2C12.5523 2 13 2.44772 13 3V8C13 8.55228 12.5523 9 12 9C11.4477 9 11 8.55228 11 8V3C11 2.44772 11.4477 2 12 2Z"/>
        <path fill-rule="evenodd" clip-rule="evenodd" d="M20 15C20.5523 15 21 15.4477 21 16V21C21 21.5523 20.5523 22 20 22C19.4477 22 19 21.5523 19 21V16C19 15.4477 19.4477 15 20 15Z"/>
        <path fill-rule="evenodd" clip-rule="evenodd" d="M20 2C20.5523 2 21 2.44772 21 3V12C21 12.5523 20.5523 13 20 13C19.4477 13 19 12.5523 19 12V3C19 2.44772 19.4477 2 20 2Z"/>
        <path fill-rule="evenodd" clip-rule="evenodd" d="M0 14C0 13.4477 0.447715 13 1 13H7C7.55228 13 8 13.4477 8 14C8 14.5523 7.55228 15 7 15H1C0.447715 15 0 14.5523 0 14Z"/>
        <path fill-rule="evenodd" clip-rule="evenodd" d="M8 8C8 7.44772 8.44771 7 9 7H15C15.5523 7 16 7.44772 16 8C16 8.55228 15.5523 9 15 9H9C8.44771 9 8 8.55228 8 8Z"/>
        <path fill-rule="evenodd" clip-rule="evenodd" d="M16 16C16 15.4477 16.4477 15 17 15H23C23.5523 15 24 15.4477 24 16C24 16.5523 23.5523 17 23 17H17C16.4477 17 16 16.5523 16 16Z"/>
    </symbol>
    <symbol id="eye" viewBox="0 0 24 24">
        <path xmlns="http://www.w3.org/2000/svg" fill-rule="evenodd" clip-rule="evenodd" d="M2.57441 12.7075C2.39492 12.4296 2.25003 12.1889 2.14074 12C2.25003 11.8111 2.39492 11.5704 2.57441 11.2925C3.03543 10.5787 3.71817 9.6294 4.60454 8.68394C6.39552 6.77356 8.89951 5 12 5C15.1005 5 17.6045 6.77356 19.3955 8.68394C20.2818 9.6294 20.9646 10.5787 21.4256 11.2925C21.6051 11.5704 21.75 11.8111 21.8593 12C21.75 12.1889 21.6051 12.4296 21.4256 12.7075C20.9646 13.4213 20.2818 14.3706 19.3955 15.3161C17.6045 17.2264 15.1005 19 12 19C8.89951 19 6.39552 17.2264 4.60454 15.3161C3.71817 14.3706 3.03543 13.4213 2.57441 12.7075ZM23 12C23.8944 11.5528 23.8943 11.5524 23.8941 11.5521L23 12ZM23.8941 11.5521C24.0348 11.8336 24.0352 12.1657 23.8944 12.4472L23 12C23.8944 12.4472 23.8938 12.4484 23.8936 12.4488L23.8925 12.4511L23.889 12.458L23.8777 12.4802C23.8681 12.4987 23.8546 12.5247 23.8372 12.5576C23.8025 12.6233 23.752 12.7168 23.686 12.834C23.5542 13.0684 23.3601 13.3985 23.1057 13.7925C22.5979 14.5787 21.8432 15.6294 20.8545 16.6839C18.8955 18.7736 15.8995 21 12 21C8.10049 21 5.10448 18.7736 3.14546 16.6839C2.15683 15.6294 1.40207 14.5787 0.894336 13.7925C0.63985 13.3985 0.445792 13.0684 0.313971 12.834C0.248023 12.7168 0.19754 12.6233 0.162753 12.5576C0.145357 12.5247 0.131875 12.4987 0.122338 12.4802L0.11099 12.458L0.107539 12.4511L0.105573 12.4472L0.999491 12.0003C0.111724 12.4441 0.105434 12.4468 0.105569 12.4472L0.105573 12.4472C-0.0351909 12.1657 -0.0351909 11.8343 0.105573 11.5528L1 12C0.105573 11.5528 0.106186 11.5516 0.10637 11.5512L0.107539 11.5489L0.11099 11.542L0.122338 11.5198C0.131875 11.5013 0.145357 11.4753 0.162753 11.4424C0.19754 11.3767 0.248023 11.2832 0.313971 11.166C0.445792 10.9316 0.63985 10.6015 0.894336 10.2075C1.40207 9.42131 2.15683 8.3706 3.14546 7.31606C5.10448 5.22644 8.10049 3 12 3C15.8995 3 18.8955 5.22644 20.8545 7.31606C21.8432 8.3706 22.5979 9.42131 23.1057 10.2075C23.3601 10.6015 23.5542 10.9316 23.686 11.166C23.752 11.2832 23.8025 11.3767 23.8372 11.4424C23.8546 11.4753 23.8681 11.5013 23.8777 11.5198L23.889 11.542L23.8925 11.5489L23.8941 11.5521ZM10 12C10 10.8954 10.8954 10 12 10C13.1046 10 14 10.8954 14 12C14 13.1046 13.1046 14 12 14C10.8954 14 10 13.1046 10 12ZM12 8C9.79086 8 8 9.79086 8 12C8 14.2091 9.79086 16 12 16C14.2091 16 16 14.2091 16 12C16 9.79086 14.2091 8 12 8Z"/>
    </symbol>
    <symbol id="history" viewBox="0 0 24 24">
        <path fill-rule="evenodd" clip-rule="evenodd" d="M2.00006 2.99066C2.55235 2.99066 3.00006 3.43838 3.00006 3.99066V8.99066H8.00006C8.55235 8.99066 9.00006 9.43838 9.00006 9.99066C9.00006 10.5429 8.55235 10.9907 8.00006 10.9907H2.00006C1.44778 10.9907 1.00006 10.5429 1.00006 9.99066V3.99066C1.00006 3.43838 1.44778 2.99066 2.00006 2.99066Z"/>
        <path fill-rule="evenodd" clip-rule="evenodd" d="M11.6054 2.09754C13.7523 1.79548 15.9393 2.19934 17.8367 3.24826C19.7341 4.29718 21.2393 5.93435 22.1254 7.91308C23.0114 9.89181 23.2304 12.1049 22.7494 14.2189C22.2683 16.3329 21.1132 18.2334 19.4581 19.6338C17.8031 21.0343 15.7377 21.8589 13.5732 21.9835C11.4088 22.1081 9.26242 21.5258 7.45762 20.3245C5.65282 19.1232 4.28733 17.3678 3.56689 15.323C3.38337 14.8021 3.65687 14.231 4.17777 14.0475C4.69867 13.864 5.26972 14.1375 5.45324 14.6584C6.02959 16.2943 7.12198 17.6985 8.56582 18.6596C10.0097 19.6207 11.7267 20.0865 13.4583 19.9868C15.1899 19.8871 16.8422 19.2274 18.1662 18.107C19.4903 16.9867 20.4144 15.4664 20.7992 13.7751C21.1841 12.0839 21.0089 10.3134 20.3 8.73047C19.5912 7.14748 18.387 5.83775 16.8691 4.99861C15.3511 4.15947 13.6016 3.83639 11.8841 4.07804C10.1665 4.31968 8.57405 5.11297 7.34657 6.33838C7.33944 6.3455 7.33219 6.35252 7.32484 6.35943L2.68484 10.7194C2.28236 11.0976 1.6495 11.0779 1.27131 10.6754C0.893119 10.273 0.912808 9.64011 1.31529 9.26192L5.94455 4.91201C7.47741 3.38648 9.46363 2.39888 11.6054 2.09754Z"/>
    </symbol>

    <symbol id="fav-solid" viewBox="0 0 17 21">
        <path xmlns="http://www.w3.org/2000/svg" fill-rule="evenodd" clip-rule="evenodd" d="M0.933597 0.922613C1.53137 0.331874 2.34212 0 3.1875 0H13.8125C14.6579 0 15.4686 0.331874 16.0664 0.922613C16.6642 1.51335 17 2.31457 17 3.15V19.95C17 20.3433 16.7776 20.7036 16.4237 20.8836C16.0698 21.0636 15.6438 21.033 15.3199 20.8044L8.5 15.9903L1.68007 20.8044C1.3562 21.033 0.930208 21.0636 0.57632 20.8836C0.222432 20.7036 0 20.3433 0 19.95V3.15C0 2.31457 0.335825 1.51335 0.933597 0.922613Z"/>
    </symbol>
    
    <symbol id="arr-left" viewBox="0 0 24 24">
        <path xmlns="http://www.w3.org/2000/svg" fill-rule="evenodd" clip-rule="evenodd" d="M15.7071 5.29289C15.3166 4.90237 14.6834 4.90237 14.2929 5.29289L8.29289 11.2929C7.90237 11.6834 7.90237 12.3166 8.29289 12.7071L14.2929 18.7071C14.6834 19.0976 15.3166 19.0976 15.7071 18.7071C16.0976 18.3166 16.0976 17.6834 15.7071 17.2929L10.4142 12L15.7071 6.70711C16.0976 6.31658 16.0976 5.68342 15.7071 5.29289Z"/>
    </symbol>
    <symbol id="arr-right" viewBox="0 0 24 24">
        <path xmlns="http://www.w3.org/2000/svg" fill-rule="evenodd" clip-rule="evenodd" d="M8.29289 5.29289C8.68342 4.90237 9.31658 4.90237 9.70711 5.29289L15.7071 11.2929C16.0976 11.6834 16.0976 12.3166 15.7071 12.7071L9.70711 18.7071C9.31658 19.0976 8.68342 19.0976 8.29289 18.7071C7.90237 18.3166 7.90237 17.6834 8.29289 17.2929L13.5858 12L8.29289 6.70711C7.90237 6.31658 7.90237 5.68342 8.29289 5.29289Z"/>
    </symbol>
    <symbol id="arr-down" viewBox="0 0 24 24">
        <path xmlns="http://www.w3.org/2000/svg" id="icon/navigation/arrow_drop_down_24px_2" d="M7 9.5L12 14.5L17 9.5H7Z"/>
    </symbol>

    <symbol xmlns="http://www.w3.org/2000/svg" id="check" viewBox="0 0 24 24">
        <path xmlns="http://www.w3.org/2000/svg" id="icon/action/done_24px_2" d="M8.79995 15.9L4.59995 11.7L3.19995 13.1L8.79995 18.7L20.8 6.7L19.4 5.3L8.79995 15.9Z"/>
    </symbol>

    <symbol id="close" viewBox="0 0 24 24">
        <path fill-rule="evenodd" clip-rule="evenodd" d="M18.7071 5.29289C19.0976 5.68342 19.0976 6.31658 18.7071 6.70711L6.70711 18.7071C6.31658 19.0976 5.68342 19.0976 5.29289 18.7071C4.90237 18.3166 4.90237 17.6834 5.29289 17.2929L17.2929 5.29289C17.6834 4.90237 18.3166 4.90237 18.7071 5.29289Z"/>
        <path fill-rule="evenodd" clip-rule="evenodd" d="M5.29289 5.29289C5.68342 4.90237 6.31658 4.90237 6.70711 5.29289L18.7071 17.2929C19.0976 17.6834 19.0976 18.3166 18.7071 18.7071C18.3166 19.0976 17.6834 19.0976 17.2929 18.7071L5.29289 6.70711C4.90237 6.31658 4.90237 5.68342 5.29289 5.29289Z"/>
    </symbol>
</svg>